# Blender v2.77 (sub 0) OBJ File: ''
# www.blender.org
mtllib column.mtl
o Cube.002
v -0.322115 -0.322115 0.357906
v -0.357906 -0.322115 0.322115
v -0.322115 -0.357906 0.322115
v -0.322115 3.380087 0.357906
v -0.322115 3.415878 0.322115
v -0.357906 3.380087 0.322115
v -0.322115 -0.322115 -0.357906
v -0.322115 -0.357906 -0.322115
v -0.357906 -0.322115 -0.322115
v -0.322115 3.415878 -0.322115
v -0.322115 3.380087 -0.357906
v -0.357906 3.380087 -0.322115
v 0.322115 -0.322115 0.357906
v 0.322115 -0.357906 0.322115
v 0.357906 -0.322115 0.322115
v 0.322115 3.415878 0.322115
v 0.322115 3.380087 0.357906
v 0.357906 3.380087 0.322115
v 0.357906 -0.322115 -0.322115
v 0.322115 -0.357906 -0.322115
v 0.322115 -0.322115 -0.357906
v 0.322115 3.415878 -0.322115
v 0.357906 3.380087 -0.322115
v 0.322115 3.380087 -0.357906
vt 0.576354 0.370121
vt 0.576354 0.199446
vt 0.704360 0.199446
vt 0.704360 0.370121
vt 0.135226 0.990410
vt 0.007220 0.990410
vt 0.007220 0.009591
vt 0.135226 0.009591
vt 0.704360 0.009590
vt 0.704360 0.180265
vt 0.576354 0.180265
vt 0.576354 0.009590
vt 0.561914 0.990409
vt 0.433908 0.990409
vt 0.433907 0.009590
vt 0.561913 0.009590
vt 0.277456 0.990409
vt 0.149449 0.990410
vt 0.149449 0.009591
vt 0.277455 0.009591
vt 0.426795 0.009590
vt 0.433907 0.000108
vt 0.433908 0.999891
vt 0.426796 0.990409
vt 0.277455 0.000109
vt 0.284566 0.009591
vt 0.576354 0.189747
vt 0.569242 0.180265
vt 0.561913 0.000108
vt 0.569025 0.009590
vt 0.704360 0.000108
vt 0.711471 0.009590
vt 0.135226 0.000109
vt 0.142337 0.009591
vt 0.711471 0.180265
vt 0.704360 0.189747
vt 0.419685 0.990409
vt 0.419684 0.009590
vt 0.569242 0.009590
vt 0.291678 0.009591
vt 0.291678 0.990409
vt 0.569242 0.370121
vt 0.569242 0.199446
vt 0.576354 0.189964
vt 0.704360 0.189964
vt 0.569026 0.990409
vt 0.711471 0.199446
vt 0.711471 0.370121
vt 0.576354 0.000108
vt 0.704360 0.379603
vt 0.576354 0.379603
vn -0.341600 -0.875600 0.341600
vn -0.341600 -0.875600 -0.341600
vn 0.341600 -0.875600 -0.341600
vn 0.341600 -0.875600 0.341600
vn 0.875600 0.341600 -0.341600
vn 0.875600 0.341600 0.341600
vn 0.875600 -0.341600 0.341600
vn 0.875600 -0.341600 -0.341600
vn 0.341600 0.875600 0.341600
vn 0.341600 0.875600 -0.341600
vn -0.341600 0.875600 -0.341600
vn -0.341600 0.875600 0.341600
vn 0.341600 0.341600 0.875600
vn -0.341600 0.341600 0.875600
vn -0.341600 -0.341600 0.875600
vn 0.341600 -0.341600 0.875600
vn -0.341600 0.341600 -0.875600
vn 0.341600 0.341600 -0.875600
vn 0.341600 -0.341600 -0.875600
vn -0.341600 -0.341600 -0.875600
vn -0.875600 -0.341600 0.341600
vn -0.875600 0.341600 0.341600
vn -0.875600 -0.341600 -0.341600
vn -0.875600 0.341600 -0.341600
usemtl None
s 1
f 3/1/1 8/2/2 20/3/3 14/4/4
f 23/5/5 18/6/6 15/7/7 19/8/8
f 16/9/9 22/10/10 10/11/11 5/12/12
f 17/13/13 4/14/14 1/15/15 13/16/16
f 11/17/17 24/18/18 21/19/19 7/20/20
f 1/15/15 2/21/21 3/22/1
f 4/14/14 5/23/12 6/24/22
f 7/20/20 8/25/2 9/26/23
f 10/11/11 11/27/17 12/28/24
f 13/16/16 14/29/4 15/30/7
f 16/9/9 17/31/13 18/32/6
f 19/8/8 20/33/3 21/34/19
f 22/10/10 23/35/5 24/36/18
f 1/15/15 4/14/14 6/37/22 2/38/21
f 5/12/12 10/11/11 12/28/24 6/39/22
f 11/17/17 7/20/20 9/40/23 12/41/24
f 8/2/2 3/1/1 2/42/21 9/43/23
f 10/11/11 22/10/10 24/36/18 11/27/17
f 23/5/5 19/8/8 21/19/19 24/18/18
f 20/3/3 8/2/2 7/44/20 21/45/19
f 22/10/10 16/9/9 18/32/6 23/35/5
f 17/13/13 13/16/16 15/30/7 18/46/6
f 14/4/4 20/3/3 19/47/8 15/48/7
f 16/9/9 5/12/12 4/49/14 17/31/13
f 3/1/1 14/4/4 13/50/16 1/51/15
f 6/37/22 12/41/24 9/40/23 2/38/21
