# Blender v2.77 (sub 0) OBJ File: ''
# www.blender.org
mtllib wall_2.mtl
o Cube.003
v 0.188405 -0.007555 -2.499999
v 0.188405 -0.007555 2.499999
v -0.052702 -0.007555 2.499998
v -0.052702 -0.007555 -2.500000
v 0.188405 0.295702 -2.499998
v -0.052702 0.295702 -2.499999
v -0.052702 3.767108 2.499999
v 0.188405 3.767108 2.500000
vt 0.000099 0.000099
vt 0.034646 0.000099
vt 0.430107 0.569696
vt 0.000099 0.569696
vt 0.569696 0.569894
vt 0.569696 0.999901
vt 0.000099 0.604440
vt 0.000099 0.569894
vt 0.999973 0.072850
vt 0.000027 0.072850
vt 0.000027 0.000027
vt 0.999973 0.000027
vt 0.999973 0.000027
vt 0.999973 0.072850
vt 0.000027 0.072850
vt 0.000027 0.000027
vt 0.336152 0.000058
vt 0.336152 0.999942
vt 0.000058 0.999942
vt 0.000058 0.000058
vt 0.999911 0.795007
vt 0.000089 0.795007
vt 0.000089 0.000089
vt 0.999911 0.000090
vn 1.000000 0.000000 0.000000
vn -1.000000 0.000000 0.000000
vn 0.000000 -1.000000 -0.000000
vn 0.000000 0.821400 -0.570300
vn -0.000000 -0.000000 1.000000
vn 0.000000 0.000000 -1.000000
usemtl Material.001
s 1
f 1/1/1 5/2/1 8/3/1 2/4/1
f 3/5/2 7/6/2 6/7/2 4/8/2
usemtl Material.001_NONE
f 1/9/3 2/10/3 3/11/3 4/12/3
f 5/13/4 6/14/4 7/15/4 8/16/4
f 2/17/5 8/18/5 7/19/5 3/20/5
f 5/21/6 1/22/6 4/23/6 6/24/6
