# Blender v2.77 (sub 0) OBJ File: ''
# www.blender.org
mtllib window_0.mtl
o Cube.005
v -0.324257 0.807865 1.859442
v -0.324257 0.876474 1.859442
v -0.324257 0.807865 -1.282055
v -0.324257 0.876474 -1.282055
v 0.083409 0.807865 1.859442
v 0.083409 0.876474 1.859442
v 0.083409 0.807865 -1.282055
v 0.083409 0.876474 -1.282055
v -0.324257 2.387261 1.859442
v -0.324257 2.455870 1.859442
v -0.324257 2.387261 -1.282055
v -0.324257 2.455870 -1.282055
v 0.083409 2.387261 1.859442
v 0.083409 2.455870 1.859442
v 0.083409 2.387261 -1.282055
v 0.083409 2.455870 -1.282055
v -0.308305 0.862001 1.765558
v -0.308305 0.862001 1.834167
v -0.308305 2.397110 1.765558
v -0.308305 2.397110 1.834166
v 0.067457 0.862001 1.765558
v 0.067457 0.862001 1.834167
v 0.067457 2.397110 1.765558
v 0.067457 2.397110 1.834166
v -0.308305 0.862001 -1.234090
v -0.308305 0.862001 -1.165481
v -0.308305 2.397110 -1.234090
v -0.308305 2.397110 -1.165481
v 0.067457 0.862001 -1.234090
v 0.067457 0.862001 -1.165481
v 0.067457 2.397110 -1.234090
v 0.067457 2.397110 -1.165481
v -0.168645 0.862001 0.189626
v -0.168645 0.862001 0.304694
v -0.168645 2.397110 0.189626
v -0.168645 2.397110 0.304693
v -0.072203 0.862001 0.189626
v -0.072203 0.862001 0.304694
v -0.072203 2.397110 0.189626
v -0.072203 2.397110 0.304693
vt 0.597277 0.943868
vt 0.597277 0.039043
vt 0.620557 0.039043
vt 0.620558 0.943868
vt 0.920488 0.039042
vt 0.782163 0.039042
vt 0.782163 0.008003
vt 0.920488 0.008003
vt 0.782163 0.943868
vt 0.758883 0.943868
vt 0.758882 0.039043
vt 0.920488 0.943868
vt 0.920488 0.974907
vt 0.782163 0.974907
vt 0.597277 0.943868
vt 0.597277 0.039043
vt 0.620557 0.039043
vt 0.620558 0.943868
vt 0.920488 0.039042
vt 0.782163 0.039042
vt 0.782163 0.008003
vt 0.920488 0.008003
vt 0.782163 0.943868
vt 0.758883 0.943868
vt 0.758882 0.039043
vt 0.920488 0.943868
vt 0.920488 0.974907
vt 0.782163 0.974907
vt 0.597277 0.943868
vt 0.597277 0.039043
vt 0.620557 0.039043
vt 0.620558 0.943868
vt 0.782163 0.039042
vt 0.782163 0.943868
vt 0.758883 0.943868
vt 0.758882 0.039043
vt 0.782163 0.039042
vt 0.782163 0.943868
vt 0.758883 0.943868
vt 0.758882 0.039043
vt 0.597277 0.943868
vt 0.597277 0.039043
vt 0.620557 0.039043
vt 0.620558 0.943868
vt 0.920488 0.039042
vt 0.920488 0.943868
vt 0.920488 0.039042
vt 0.920488 0.943868
vt 0.597277 0.943868
vt 0.597277 0.039043
vt 0.620557 0.039043
vt 0.620558 0.943868
vt 0.782163 0.039042
vt 0.782163 0.943868
vt 0.758883 0.943868
vt 0.758882 0.039043
vt 0.920488 0.039042
vt 0.920488 0.943868
vn -1.000000 0.000000 0.000000
vn 0.000000 0.000000 -1.000000
vn 1.000000 0.000000 0.000000
vn 0.000000 0.000000 1.000000
vn 0.000000 -1.000000 0.000000
vn 0.000000 1.000000 0.000000
usemtl madeira
s off
f 2/1/1 4/2/1 3/3/1 1/4/1
f 4/5/2 8/6/2 7/7/2 3/8/2
f 8/6/3 6/9/3 5/10/3 7/11/3
f 6/9/4 2/12/4 1/13/4 5/14/4
f 1/4/5 3/3/5 7/11/5 5/10/5
f 6/9/6 8/6/6 4/5/6 2/12/6
f 10/15/1 12/16/1 11/17/1 9/18/1
f 12/19/2 16/20/2 15/21/2 11/22/2
f 16/20/3 14/23/3 13/24/3 15/25/3
f 14/23/4 10/26/4 9/27/4 13/28/4
f 9/18/5 11/17/5 15/25/5 13/24/5
f 14/23/6 16/20/6 12/19/6 10/26/6
f 18/29/1 20/30/1 19/31/1 17/32/1
f 32/33/3 30/34/3 29/35/3 31/36/3
f 24/37/3 22/38/3 21/39/3 23/40/3
f 26/41/1 28/42/1 27/43/1 25/44/1
f 17/32/2 19/31/2 23/40/2 21/39/2
f 22/38/4 24/37/4 20/45/4 18/46/4
f 25/44/2 27/43/2 31/36/2 29/35/2
f 30/34/4 32/33/4 28/47/4 26/48/4
f 34/49/1 36/50/1 35/51/1 33/52/1
f 40/53/3 38/54/3 37/55/3 39/56/3
f 33/52/2 35/51/2 39/56/2 37/55/2
f 38/54/4 40/53/4 36/57/4 34/58/4
