# Blender v2.77 (sub 0) OBJ File: ''
# www.blender.org
mtllib bowl.mtl
o Circle_Circle.002
v 0.000000 0.000000 -1.000000
v -0.382683 0.000000 -0.923880
v -0.707107 0.000000 -0.707107
v -0.923880 0.000000 -0.382683
v -1.000000 0.000000 0.000000
v -0.923880 0.000000 0.382684
v -0.707107 0.000000 0.707107
v -0.382683 0.000000 0.923880
v -0.000000 0.000000 1.000000
v 0.382683 0.000000 0.923880
v 0.707107 0.000000 0.707107
v 0.923880 0.000000 0.382684
v 1.000000 0.000000 -0.000000
v 0.923879 0.000000 -0.382684
v 0.707107 0.000000 -0.707107
v 0.382683 0.000000 -0.923880
v 0.000000 1.197943 -1.982607
v -0.758711 1.197943 -1.831690
v -1.401915 1.197943 -1.401915
v -1.831690 1.197943 -0.758711
v -1.982607 1.197943 0.000000
v -1.831690 1.197943 0.758711
v -1.401915 1.197943 1.401915
v -0.758711 1.197943 1.831690
v -0.000000 1.197943 1.982607
v 0.758711 1.197943 1.831691
v 1.401915 1.197943 1.401916
v 1.831691 1.197943 0.758711
v 1.982607 1.197943 -0.000000
v 1.831690 1.197943 -0.758711
v 1.401915 1.197943 -1.401916
v 0.758710 1.197943 -1.831691
v 1.326844 0.825333 -1.326845
v 1.064264 0.372610 -1.064264
v 0.575975 0.372610 -1.390528
v 0.718082 0.825333 -1.733606
v -0.718083 0.825333 1.733605
v -0.575976 0.372610 1.390528
v -0.000000 0.372610 1.505097
v -0.000000 0.825333 1.876441
v 0.000000 0.825333 -1.876441
v 0.000000 0.372610 -1.505097
v -0.575976 0.372610 -1.390528
v -0.718083 0.825333 -1.733605
v 0.575975 0.372610 1.390528
v 0.718082 0.825333 1.733606
v -1.064264 0.372610 -1.064264
v -1.326844 0.825333 -1.326844
v 1.064264 0.372610 1.064264
v 1.326844 0.825333 1.326845
v -1.390528 0.372610 -0.575976
v -1.733605 0.825333 -0.718083
v 1.390528 0.372610 0.575976
v 1.733605 0.825333 0.718083
v -1.505097 0.372610 0.000000
v -1.876441 0.825333 0.000000
v 1.505097 0.372610 -0.000000
v 1.876441 0.825333 -0.000000
v -1.390528 0.372610 0.575976
v -1.733605 0.825333 0.718083
v 1.390528 0.372610 -0.575976
v 1.733605 0.825333 -0.718083
v -1.064264 0.372610 1.064264
v -1.326844 0.825333 1.326844
v -0.000000 0.000000 -0.000000
v 0.000000 0.093793 -0.965319
v -0.369414 0.093793 -0.891838
v -0.682585 0.093793 -0.682585
v -0.891838 0.093793 -0.369414
v -0.965319 0.093793 0.000000
v -0.891838 0.093793 0.369414
v -0.682585 0.093793 0.682585
v -0.369414 0.093793 0.891838
v -0.000000 0.093793 0.965319
v 0.369414 0.093793 0.891838
v 0.682585 0.093793 0.682585
v 0.891838 0.093793 0.369414
v 0.965319 0.093793 -0.000000
v 0.891838 0.093793 -0.369414
v 0.682585 0.093793 -0.682585
v 0.369414 0.093793 -0.891838
v 0.000000 1.225343 -1.886438
v -0.721909 1.225343 -1.742839
v -1.333914 1.225343 -1.333914
v -1.742839 1.225343 -0.721909
v -1.886437 1.225343 0.000000
v -1.742839 1.225343 0.721909
v -1.333914 1.225343 1.333914
v -0.721909 1.225343 1.742839
v -0.000000 1.225343 1.886438
v 0.721908 1.225343 1.742839
v 1.333914 1.225343 1.333914
v 1.742839 1.225343 0.721909
v 1.886438 1.225343 -0.000000
v 1.742839 1.225343 -0.721909
v 1.333913 1.225343 -1.333914
v 0.721908 1.225343 -1.742839
v 1.263832 0.870702 -1.263833
v 1.015004 0.444350 -1.015004
v 0.549317 0.444350 -1.326168
v 0.683981 0.870702 -1.651276
v -0.683982 0.870702 1.651276
v -0.549318 0.444350 1.326167
v -0.000000 0.444350 1.435432
v -0.000000 0.870702 1.787327
v 0.000000 0.870702 -1.787327
v 0.000000 0.444350 -1.435432
v -0.549318 0.444350 -1.326167
v -0.683982 0.870702 -1.651276
v 0.549317 0.444350 1.326168
v 0.683981 0.870702 1.651276
v -1.015004 0.444350 -1.015004
v -1.263832 0.870702 -1.263833
v 1.015004 0.444350 1.015004
v 1.263832 0.870702 1.263833
v -1.326167 0.444350 -0.549318
v -1.651276 0.870702 -0.683981
v 1.326167 0.444350 0.549318
v 1.651276 0.870702 0.683982
v -1.435432 0.444350 0.000000
v -1.787327 0.870702 0.000000
v 1.435432 0.444350 -0.000000
v 1.787327 0.870702 -0.000000
v -1.326167 0.444350 0.549318
v -1.651276 0.870702 0.683982
v 1.326167 0.444350 -0.549318
v 1.651276 0.870702 -0.683982
v -1.015004 0.444350 1.015004
v -1.263832 0.870702 1.263833
v -0.000000 0.100000 -0.000000
vt 0.361766 0.917795
vt 0.448358 0.885618
vt 0.478536 0.932866
vt 0.372666 0.971981
vt 0.196043 0.476966
vt 0.126248 0.541573
vt 0.078992 0.510063
vt 0.165865 0.429718
vt 0.518153 0.821011
vt 0.556698 0.734040
vt 0.611695 0.743560
vt 0.565409 0.852521
vt 0.087703 0.628544
vt 0.032706 0.619024
vt 0.558688 0.641642
vt 0.612860 0.630657
vt 0.085713 0.720942
vt 0.031542 0.731926
vt 0.526414 0.555132
vt 0.573572 0.524926
vt 0.117988 0.807452
vt 0.070829 0.837658
vt 0.461835 0.485466
vt 0.493268 0.438312
vt 0.182566 0.877118
vt 0.151133 0.924272
vt 0.374992 0.446898
vt 0.384566 0.391976
vt 0.269410 0.915686
vt 0.259835 0.970608
vt 0.282635 0.444788
vt 0.271736 0.390602
vt 0.306937 0.579838
vt 0.269320 0.593381
vt 0.233786 0.536632
vt 0.295540 0.513910
vt 0.297540 0.780930
vt 0.337464 0.782746
vt 0.348861 0.848673
vt 0.283090 0.846397
vt 0.346862 0.581654
vt 0.361312 0.516186
vt 0.261255 0.763862
vt 0.222596 0.818673
vt 0.383147 0.598721
vt 0.421805 0.543911
vt 0.234300 0.734158
vt 0.177584 0.769694
vt 0.410101 0.628426
vt 0.466818 0.592890
vt 0.220746 0.696548
vt 0.154824 0.707972
vt 0.423655 0.666036
vt 0.489577 0.654612
vt 0.222548 0.656624
vt 0.157052 0.642188
vt 0.421853 0.705960
vt 0.487349 0.720396
vt 0.239609 0.620335
vt 0.184765 0.581655
vt 0.375081 0.769203
vt 0.404792 0.742249
vt 0.459636 0.780929
vt 0.410616 0.825952
vt 0.322201 0.681292
vt 0.962167 0.216318
vt 0.961945 0.312273
vt 0.916848 0.303650
vt 0.918056 0.224448
vt 0.473401 0.213788
vt 0.509714 0.123859
vt 0.548737 0.149128
vt 0.518322 0.222195
vt 0.924963 0.402528
vt 0.855169 0.472765
vt 0.828877 0.432685
vt 0.885909 0.377023
vt 0.579093 0.053354
vt 0.605564 0.093403
vt 0.763886 0.507126
vt 0.755785 0.463074
vt 0.670549 0.018283
vt 0.678897 0.062451
vt 0.668068 0.506882
vt 0.676682 0.461851
vt 0.766761 0.018177
vt 0.758244 0.063395
vt 0.577953 0.469964
vt 0.603401 0.430965
vt 0.857276 0.055071
vt 0.831786 0.094236
vt 0.507806 0.400339
vt 0.547776 0.374056
vt 0.927707 0.124915
vt 0.887585 0.151283
vt 0.473401 0.309305
vt 0.517332 0.301132
vt 0.575743 0.289095
vt 0.576422 0.232864
vt 0.630830 0.244087
vt 0.630976 0.278576
vt 0.838623 0.183520
vt 0.859464 0.236402
vt 0.804178 0.246871
vt 0.791784 0.214792
vt 0.596612 0.341883
vt 0.643392 0.310644
vt 0.798424 0.143989
vt 0.767811 0.189958
vt 0.636734 0.381379
vt 0.667358 0.335473
vt 0.747400 0.121731
vt 0.736194 0.176052
vt 0.687683 0.403694
vt 0.698962 0.349401
vt 0.691269 0.121067
vt 0.701744 0.176200
vt 0.743870 0.404545
vt 0.733427 0.349295
vt 0.638899 0.142094
vt 0.669704 0.188585
vt 0.796719 0.383749
vt 0.765502 0.336915
vt 0.598505 0.181358
vt 0.644784 0.212439
vt 0.858621 0.292636
vt 0.836274 0.343621
vt 0.790350 0.312960
vt 0.804290 0.281348
vt 0.717583 0.262723
vt 0.627778 0.747103
vt 0.580048 0.862815
vt 0.627778 0.628078
vt 0.587532 0.516155
vt 0.503543 0.423700
vt 0.388129 0.375921
vt 0.269185 0.375679
vt 0.157104 0.415726
vt 0.064353 0.499769
vt 0.016624 0.615481
vt 0.016624 0.734506
vt 0.056869 0.846429
vt 0.140858 0.938884
vt 0.256272 0.986663
vt 0.375216 0.986904
vt 0.487297 0.946858
vn 0.630100 -0.453700 -0.630100
vn 0.341000 -0.453700 -0.823300
vn 0.341300 0.452400 -0.823900
vn 0.630600 0.452400 -0.630600
vn -0.341000 -0.453700 0.823300
vn 0.000000 -0.453700 0.891100
vn 0.000000 0.452400 0.891800
vn -0.341300 0.452400 0.823900
vn 0.000000 -0.453700 -0.891100
vn -0.341000 -0.453700 -0.823300
vn -0.341300 0.452400 -0.823900
vn 0.000000 0.452400 -0.891800
vn 0.341000 -0.453700 0.823300
vn 0.341300 0.452400 0.823900
vn -0.630100 -0.453700 -0.630100
vn -0.630600 0.452400 -0.630600
vn 0.630100 -0.453700 0.630100
vn 0.630600 0.452400 0.630600
vn -0.823300 -0.453700 -0.341000
vn -0.823900 0.452400 -0.341300
vn 0.823300 -0.453700 0.341000
vn 0.823900 0.452400 0.341300
vn -0.891100 -0.453700 0.000000
vn -0.891800 0.452400 0.000000
vn 0.891100 -0.453700 0.000000
vn 0.891800 0.452400 0.000000
vn -0.823300 -0.453700 0.341000
vn -0.823900 0.452400 0.341300
vn 0.823300 -0.453700 -0.341000
vn 0.823900 0.452400 -0.341300
vn -0.630100 -0.453700 0.630100
vn -0.630600 0.452400 0.630600
vn -0.245200 -0.937900 0.245200
vn -0.132700 -0.937900 0.320400
vn -0.266600 -0.717400 0.643600
vn -0.492600 -0.717400 0.492600
vn 0.320400 -0.937900 -0.132700
vn 0.245200 -0.937900 -0.245200
vn 0.492600 -0.717400 -0.492600
vn 0.643600 -0.717400 -0.266600
vn -0.320400 -0.937900 0.132700
vn -0.643600 -0.717400 0.266600
vn 0.346800 -0.937900 0.000000
vn 0.696600 -0.717400 0.000000
vn -0.346800 -0.937900 0.000000
vn -0.696600 -0.717400 0.000000
vn 0.320400 -0.937900 0.132700
vn 0.643600 -0.717400 0.266600
vn -0.320400 -0.937900 -0.132700
vn -0.643600 -0.717400 -0.266600
vn 0.245200 -0.937900 0.245200
vn 0.492600 -0.717400 0.492600
vn -0.245200 -0.937900 -0.245200
vn -0.492600 -0.717400 -0.492600
vn 0.132700 -0.937900 0.320400
vn 0.266600 -0.717400 0.643600
vn -0.132700 -0.937900 -0.320400
vn -0.266600 -0.717400 -0.643600
vn 0.000000 -0.937900 0.346800
vn 0.000000 -0.717400 0.696600
vn 0.132700 -0.937900 -0.320400
vn 0.000000 -0.937900 -0.346800
vn 0.000000 -0.717400 -0.696600
vn 0.266600 -0.717400 -0.643600
vn 0.000000 -1.000000 0.000000
vn -0.293700 0.909700 0.293700
vn -0.158900 0.909700 0.383700
vn -0.341200 0.452600 0.823800
vn -0.630500 0.452600 0.630500
vn 0.158900 0.909700 -0.383700
vn 0.000000 0.909700 -0.415300
vn 0.000000 0.452600 -0.891700
vn 0.341200 0.452600 -0.823800
vn 0.000000 0.909700 0.415300
vn 0.158900 0.909700 0.383700
vn 0.341200 0.452600 0.823800
vn 0.000000 0.452600 0.891700
vn -0.158900 0.909700 -0.383700
vn -0.341200 0.452600 -0.823800
vn 0.293700 0.909700 0.293700
vn 0.630500 0.452600 0.630500
vn -0.293700 0.909700 -0.293700
vn -0.630500 0.452600 -0.630500
vn 0.383700 0.909700 0.158900
vn 0.823800 0.452600 0.341200
vn -0.383700 0.909700 -0.158900
vn -0.823800 0.452600 -0.341200
vn 0.415300 0.909700 0.000000
vn 0.891700 0.452600 0.000000
vn -0.415300 0.909700 0.000000
vn -0.891700 0.452600 0.000000
vn 0.383700 0.909700 -0.158900
vn 0.823800 0.452600 -0.341200
vn -0.383700 0.909700 0.158900
vn -0.823800 0.452600 0.341200
vn 0.293700 0.909700 -0.293700
vn 0.630500 0.452600 -0.630500
vn 0.492900 0.716900 -0.492900
vn 0.266800 0.716900 -0.644100
vn 0.132700 0.937900 -0.320400
vn 0.245200 0.937900 -0.245200
vn -0.644100 0.716900 0.266800
vn -0.492900 0.716900 0.492900
vn -0.245200 0.937900 0.245200
vn -0.320400 0.937900 0.132700
vn 0.644100 0.716900 -0.266800
vn 0.320400 0.937900 -0.132700
vn -0.697100 0.716900 0.000000
vn -0.346800 0.937900 0.000000
vn 0.697100 0.716900 0.000000
vn 0.346800 0.937900 0.000000
vn -0.644100 0.716900 -0.266800
vn -0.320400 0.937900 -0.132700
vn 0.644100 0.716900 0.266800
vn 0.320400 0.937900 0.132700
vn -0.492900 0.716900 -0.492900
vn -0.245200 0.937900 -0.245200
vn 0.492900 0.716900 0.492900
vn 0.245200 0.937900 0.245200
vn -0.266800 0.716900 -0.644100
vn -0.132700 0.937900 -0.320400
vn 0.266800 0.716900 0.644100
vn 0.132700 0.937900 0.320400
vn 0.000000 0.716900 -0.697100
vn 0.000000 0.937900 -0.346800
vn -0.266800 0.716900 0.644100
vn 0.000000 0.716900 0.697100
vn 0.000000 0.937900 0.346800
vn -0.132700 0.937900 0.320400
vn 0.000000 1.000000 0.000000
usemtl bowl
s 1
f 33/1/1 36/2/2 32/3/3 31/4/4
f 37/5/5 40/6/6 25/7/7 24/8/8
f 41/9/9 44/10/10 18/11/11 17/12/12
f 36/2/2 41/9/9 17/12/12 32/3/3
f 40/6/6 46/13/13 26/14/14 25/7/7
f 44/10/10 48/15/15 19/16/16 18/11/11
f 46/13/13 50/17/17 27/18/18 26/14/14
f 48/15/15 52/19/19 20/20/20 19/16/16
f 50/17/17 54/21/21 28/22/22 27/18/18
f 52/19/19 56/23/23 21/24/24 20/20/20
f 54/21/21 58/25/25 29/26/26 28/22/22
f 56/23/23 60/27/27 22/28/28 21/24/24
f 58/25/25 62/29/29 30/30/30 29/26/26
f 60/27/27 64/31/31 23/32/32 22/28/28
f 62/29/29 33/1/1 31/4/4 30/30/30
f 64/31/31 37/5/5 24/8/8 23/32/32
f 7/33/33 8/34/34 38/35/35 63/36/36
f 63/36/36 38/35/35 37/5/5 64/31/31
f 14/37/37 15/38/38 34/39/39 61/40/40
f 61/40/40 34/39/39 33/1/1 62/29/29
f 6/41/41 7/33/33 63/36/36 59/42/42
f 59/42/42 63/36/36 64/31/31 60/27/27
f 13/43/43 14/37/37 61/40/40 57/44/44
f 57/44/44 61/40/40 62/29/29 58/25/25
f 5/45/45 6/41/41 59/42/42 55/46/46
f 55/46/46 59/42/42 60/27/27 56/23/23
f 12/47/47 13/43/43 57/44/44 53/48/48
f 53/48/48 57/44/44 58/25/25 54/21/21
f 4/49/49 5/45/45 55/46/46 51/50/50
f 51/50/50 55/46/46 56/23/23 52/19/19
f 11/51/51 12/47/47 53/48/48 49/52/52
f 49/52/52 53/48/48 54/21/21 50/17/17
f 3/53/53 4/49/49 51/50/50 47/54/54
f 47/54/54 51/50/50 52/19/19 48/15/15
f 10/55/55 11/51/51 49/52/52 45/56/56
f 45/56/56 49/52/52 50/17/17 46/13/13
f 2/57/57 3/53/53 47/54/54 43/58/58
f 43/58/58 47/54/54 48/15/15 44/10/10
f 9/59/59 10/55/55 45/56/56 39/60/60
f 39/60/60 45/56/56 46/13/13 40/6/6
f 16/61/61 1/62/62 42/63/63 35/64/64
f 35/64/64 42/63/63 41/9/9 36/2/2
f 1/62/62 2/57/57 43/58/58 42/63/63
f 42/63/63 43/58/58 44/10/10 41/9/9
f 8/34/34 9/59/59 39/60/60 38/35/35
f 38/35/35 39/60/60 40/6/6 37/5/5
f 15/38/38 16/61/61 35/64/64 34/39/39
f 34/39/39 35/64/64 36/2/2 33/1/1
f 11/51/51 10/55/55 65/65/65
f 4/49/49 3/53/53 65/65/65
f 12/47/47 11/51/51 65/65/65
f 5/45/45 4/49/49 65/65/65
f 13/43/43 12/47/47 65/65/65
f 6/41/41 5/45/45 65/65/65
f 14/37/37 13/43/43 65/65/65
f 7/33/33 6/41/41 65/65/65
f 15/38/38 14/37/37 65/65/65
f 8/34/34 7/33/33 65/65/65
f 16/61/61 15/38/38 65/65/65
f 9/59/59 8/34/34 65/65/65
f 2/57/57 1/62/62 65/65/65
f 1/62/62 16/61/61 65/65/65
f 10/55/55 9/59/59 65/65/65
f 3/53/53 2/57/57 65/65/65
f 96/66/66 97/67/67 101/68/68 98/69/69
f 89/70/70 90/71/71 105/72/72 102/73/73
f 82/74/74 83/75/75 109/76/76 106/77/77
f 97/67/67 82/74/74 106/77/77 101/68/68
f 90/71/71 91/78/78 111/79/79 105/72/72
f 83/75/75 84/80/80 113/81/81 109/76/76
f 91/78/78 92/82/82 115/83/83 111/79/79
f 84/80/80 85/84/84 117/85/85 113/81/81
f 92/82/82 93/86/86 119/87/87 115/83/83
f 85/84/84 86/88/88 121/89/89 117/85/85
f 93/86/86 94/90/90 123/91/91 119/87/87
f 86/88/88 87/92/92 125/93/93 121/89/89
f 94/90/90 95/94/94 127/95/95 123/91/91
f 87/92/92 88/96/96 129/97/97 125/93/93
f 95/94/94 96/66/66 98/69/69 127/95/95
f 88/96/96 89/70/70 102/73/73 129/97/97
f 128/98/98 103/99/99 73/100/100 72/101/101
f 129/97/97 102/73/73 103/99/99 128/98/98
f 126/102/102 99/103/103 80/104/104 79/105/105
f 127/95/95 98/69/69 99/103/103 126/102/102
f 124/106/106 128/98/98 72/101/101 71/107/107
f 125/93/93 129/97/97 128/98/98 124/106/106
f 122/108/108 126/102/102 79/105/105 78/109/109
f 123/91/91 127/95/95 126/102/102 122/108/108
f 120/110/110 124/106/106 71/107/107 70/111/111
f 121/89/89 125/93/93 124/106/106 120/110/110
f 118/112/112 122/108/108 78/109/109 77/113/113
f 119/87/87 123/91/91 122/108/108 118/112/112
f 116/114/114 120/110/110 70/111/111 69/115/115
f 117/85/85 121/89/89 120/110/110 116/114/114
f 114/116/116 118/112/112 77/113/113 76/117/117
f 115/83/83 119/87/87 118/112/112 114/116/116
f 112/118/118 116/114/114 69/115/115 68/119/119
f 113/81/81 117/85/85 116/114/114 112/118/118
f 110/120/120 114/116/116 76/117/117 75/121/121
f 111/79/79 115/83/83 114/116/116 110/120/120
f 108/122/122 112/118/118 68/119/119 67/123/123
f 109/76/76 113/81/81 112/118/118 108/122/122
f 104/124/124 110/120/120 75/121/121 74/125/125
f 105/72/72 111/79/79 110/120/120 104/124/124
f 100/126/126 107/127/127 66/128/128 81/129/129
f 101/68/68 106/77/77 107/127/127 100/126/126
f 107/127/127 108/122/122 67/123/123 66/128/128
f 106/77/77 109/76/76 108/122/122 107/127/127
f 103/99/99 104/124/124 74/125/125 73/100/100
f 102/73/73 105/72/72 104/124/124 103/99/99
f 99/103/103 100/126/126 81/129/129 80/104/104
f 98/69/69 101/68/68 100/126/126 99/103/103
f 130/130/130 75/121/121 76/117/117
f 130/130/130 68/119/119 69/115/115
f 130/130/130 76/117/117 77/113/113
f 130/130/130 69/115/115 70/111/111
f 130/130/130 77/113/113 78/109/109
f 130/130/130 70/111/111 71/107/107
f 130/130/130 78/109/109 79/105/105
f 130/130/130 71/107/107 72/101/101
f 130/130/130 79/105/105 80/104/104
f 130/130/130 72/101/101 73/100/100
f 130/130/130 80/104/104 81/129/129
f 130/130/130 73/100/100 74/125/125
f 130/130/130 66/128/128 67/123/123
f 130/130/130 81/129/129 66/128/128
f 130/130/130 74/125/125 75/121/121
f 130/130/130 67/123/123 68/119/119
f 17/12/12 18/11/11 83/131/75 82/132/74
f 18/11/11 19/16/16 84/133/80 83/131/75
f 19/16/16 20/20/20 85/134/84 84/133/80
f 20/20/20 21/24/24 86/135/88 85/134/84
f 21/24/24 22/28/28 87/136/92 86/135/88
f 22/28/28 23/32/32 88/137/96 87/136/92
f 23/32/32 24/8/8 89/138/70 88/137/96
f 24/8/8 25/7/7 90/139/71 89/138/70
f 25/7/7 26/14/14 91/140/78 90/139/71
f 26/14/14 27/18/18 92/141/82 91/140/78
f 27/18/18 28/22/22 93/142/86 92/141/82
f 28/22/22 29/26/26 94/143/90 93/142/86
f 29/26/26 30/30/30 95/144/94 94/143/90
f 30/30/30 31/4/4 96/145/66 95/144/94
f 31/4/4 32/3/3 97/146/67 96/145/66
f 32/3/3 17/12/12 82/132/74 97/146/67
