# Blender v2.77 (sub 0) OBJ File: ''
# www.blender.org
mtllib shelf.mtl
o Plane
v 0.149388 -0.013347 1.368873
v 0.149388 0.005166 1.368873
v -0.190419 -0.334640 1.368873
v -0.190419 0.005166 1.368873
v -0.190419 -0.334640 1.393674
v 0.149388 -0.013347 1.393674
v 0.149388 0.005166 1.393674
v -0.190419 0.005166 1.393674
v 0.149388 -0.013347 -1.419142
v 0.149388 0.005166 -1.419142
v -0.190419 -0.334640 -1.419142
v -0.190419 0.005166 -1.419142
v -0.190419 -0.334640 -1.394340
v 0.149388 -0.013347 -1.394340
v 0.149388 0.005166 -1.394340
v -0.190419 0.005166 -1.394340
v 0.149388 -0.013347 -0.007734
v 0.149388 0.005166 -0.007734
v -0.190419 -0.334640 -0.007734
v -0.190419 0.005166 -0.007734
v -0.190419 -0.334640 0.017068
v 0.149388 -0.013347 0.017068
v 0.149388 0.005166 0.017068
v -0.190419 0.005166 0.017068
v -0.250000 0.000000 1.500000
v 0.250000 0.000000 1.500000
v -0.250000 0.000000 -1.500000
v 0.250000 0.000000 -1.500000
v -0.250000 0.036426 -1.500000
v -0.250000 0.036426 1.500000
v 0.250000 0.036426 1.500000
v 0.250000 0.036426 -1.500000
vt 0.026895 0.000127
vt 0.491430 0.491430
vt 0.000128 0.491430
vt 0.000127 0.000127
vt 0.000127 0.518451
vt 0.000127 0.491684
vt 0.491430 0.491684
vt 0.491430 0.982987
vt 0.491684 0.017013
vt 0.982988 0.017013
vt 0.982988 0.033644
vt 0.491684 0.033644
vt 0.703053 0.999871
vt 0.026895 0.999873
vt 0.026895 0.983241
vt 0.703053 0.983241
vt 0.982988 0.016758
vt 0.491684 0.016758
vt 0.491684 0.000127
vt 0.982988 0.000127
vt 0.000127 0.999873
vt 0.000127 0.983241
vt 0.026895 0.000127
vt 0.491430 0.491430
vt 0.000128 0.491430
vt 0.000127 0.000127
vt 0.000127 0.518451
vt 0.000127 0.491684
vt 0.491430 0.491684
vt 0.491430 0.982987
vt 0.491684 0.017013
vt 0.982988 0.017013
vt 0.982988 0.033644
vt 0.491684 0.033644
vt 0.703053 0.999871
vt 0.026895 0.999873
vt 0.026895 0.983241
vt 0.703053 0.983241
vt 0.982988 0.016758
vt 0.491684 0.016758
vt 0.491684 0.000127
vt 0.982988 0.000127
vt 0.000127 0.999873
vt 0.000127 0.983241
vt 0.026895 0.000127
vt 0.491430 0.491430
vt 0.000128 0.491430
vt 0.000127 0.000127
vt 0.000127 0.518451
vt 0.000127 0.491684
vt 0.491430 0.491684
vt 0.491430 0.982987
vt 0.491684 0.017013
vt 0.982988 0.017013
vt 0.982988 0.033644
vt 0.491684 0.033644
vt 0.703053 0.999871
vt 0.026895 0.999873
vt 0.026895 0.983241
vt 0.703053 0.983241
vt 0.982988 0.016758
vt 0.491684 0.016758
vt 0.491684 0.000127
vt 0.982988 0.000127
vt 0.000127 0.999873
vt 0.000127 0.983241
vt 0.000060 0.000060
vt 0.999685 0.000060
vt 0.999685 0.127658
vt 0.000060 0.127658
vt 0.000188 0.272702
vt 0.000188 0.145104
vt 0.999812 0.145104
vt 0.999812 0.272702
vt 0.999940 0.290148
vt 0.000315 0.290148
vt 0.265075 0.297554
vt 0.132628 0.297554
vt 0.132628 0.290268
vt 0.265075 0.290268
vt 0.000060 0.290268
vt 0.132508 0.290268
vt 0.132508 0.297554
vt 0.000060 0.297554
vn -0.000000 0.000000 -1.000000
vn 0.000000 0.000000 1.000000
vn 0.000000 1.000000 0.000000
vn 0.687000 -0.726600 0.000000
vn -1.000000 0.000000 0.000000
vn 1.000000 0.000000 0.000000
vn 0.000000 -1.000000 0.000000
usemtl None
s off
f 1/1/1 3/2/1 4/3/1 2/4/1
f 6/5/2 7/6/2 8/7/2 5/8/2
f 2/9/3 4/10/3 8/11/3 7/12/3
f 3/13/4 1/14/4 6/15/4 5/16/4
f 4/17/5 3/18/5 5/19/5 8/20/5
f 1/14/6 2/21/6 7/22/6 6/15/6
f 9/23/1 11/24/1 12/25/1 10/26/1
f 14/27/2 15/28/2 16/29/2 13/30/2
f 10/31/3 12/32/3 16/33/3 15/34/3
f 11/35/4 9/36/4 14/37/4 13/38/4
f 12/39/5 11/40/5 13/41/5 16/42/5
f 9/36/6 10/43/6 15/44/6 14/37/6
f 17/45/1 19/46/1 20/47/1 18/48/1
f 22/49/2 23/50/2 24/51/2 21/52/2
f 18/53/3 20/54/3 24/55/3 23/56/3
f 19/57/4 17/58/4 22/59/4 21/60/4
f 20/61/5 19/62/5 21/63/5 24/64/5
f 17/58/6 18/65/6 23/66/6 22/59/6
f 25/67/7 27/68/7 28/69/7 26/70/7
f 30/71/3 31/72/3 32/73/3 29/74/3
f 26/70/6 28/69/6 32/73/6 31/72/6
f 27/75/5 25/76/5 30/71/5 29/74/5
f 28/77/1 27/78/1 29/79/1 32/80/1
f 25/81/2 26/82/2 31/83/2 30/84/2
