# Blender v2.77 (sub 0) OBJ File: 'barrio.blend'
# www.blender.org
mtllib metal_barrio.mtl
o Circle.002_Circle.003
v 0.000000 0.441932 -1.309114
v -0.500976 0.441932 -1.209464
v -0.925683 0.441932 -0.925683
v -1.209464 0.441932 -0.500976
v -1.309114 0.441932 0.000000
v -1.209464 0.441932 0.500976
v -0.925683 0.441932 0.925683
v -0.500976 0.441932 1.209464
v -0.000000 0.441932 1.309114
v 0.500976 0.441932 1.209464
v 0.925683 0.441932 0.925684
v 1.209464 0.441932 0.500976
v 1.309114 0.441932 -0.000000
v 1.209463 0.441932 -0.500976
v 0.925683 0.441932 -0.925684
v 0.500976 0.441932 -1.209464
v 0.000000 0.782706 -1.384025
v -0.529643 0.782706 -1.278672
v -0.978654 0.782706 -0.978654
v -1.278673 0.782706 -0.529643
v -1.384025 0.782706 0.000000
v -1.278673 0.782706 0.529644
v -0.978654 0.782706 0.978654
v -0.529643 0.782706 1.278672
v -0.000000 0.782706 1.384025
v 0.529643 0.782706 1.278673
v 0.978653 0.782706 0.978654
v 1.278672 0.782706 0.529644
v 1.384025 0.782706 -0.000000
v 1.278672 0.782706 -0.529644
v 0.978653 0.782706 -0.978654
v 0.529643 0.782706 -1.278673
v 0.000000 1.779044 -1.383811
v -0.529561 1.779044 -1.278474
v -0.978502 1.779044 -0.978502
v -1.278475 1.779044 -0.529561
v -1.383811 1.779045 0.000000
v -1.278475 1.779044 0.529562
v -0.978502 1.779044 0.978502
v -0.529561 1.779044 1.278474
v -0.000000 1.779044 1.383811
v 0.529561 1.779044 1.278475
v 0.978502 1.779044 0.978502
v 1.278474 1.779044 0.529562
v 1.383811 1.779044 -0.000000
v 1.278474 1.779044 -0.529562
v 0.978502 1.779044 -0.978502
v 0.529561 1.779044 -1.278475
v 0.000000 2.100455 -1.317336
v -0.504123 2.100455 -1.217060
v -0.931498 2.100455 -0.931498
v -1.217060 2.100455 -0.504123
v -1.317336 2.100455 0.000000
v -1.217060 2.100455 0.504123
v -0.931498 2.100455 0.931498
v -0.504123 2.100455 1.217060
v -0.000000 2.100455 1.317336
v 0.504123 2.100455 1.217060
v 0.931497 2.100455 0.931498
v 1.217060 2.100455 0.504123
v 1.317336 2.100455 -0.000000
v 1.217060 2.100455 -0.504123
v 0.931497 2.100455 -0.931498
v 0.504122 2.100455 -1.217061
v 0.000000 2.100455 -1.218522
v -0.466308 2.100455 -1.125767
v -0.861625 2.100455 -0.861625
v -1.125767 2.100455 -0.466308
v -1.218522 2.100455 0.000000
v -1.125767 2.100455 0.466308
v -0.861625 2.100455 0.861625
v -0.466308 2.100455 1.125767
v -0.000000 2.100455 1.218522
v 0.466308 2.100455 1.125767
v 0.861625 2.100455 0.861625
v 1.125767 2.100455 0.466308
v 1.218522 2.100455 -0.000000
v 1.125767 2.100455 -0.466308
v 0.861625 2.100455 -0.861625
v 0.466308 2.100455 -1.125768
v 0.000000 1.779044 -1.297339
v -0.496470 1.779044 -1.198585
v -0.917357 1.779044 -0.917357
v -1.198585 1.779044 -0.496470
v -1.297339 1.779045 0.000000
v -1.198585 1.779044 0.496470
v -0.917357 1.779044 0.917357
v -0.496470 1.779044 1.198585
v -0.000000 1.779044 1.297339
v 0.496470 1.779044 1.198585
v 0.917357 1.779044 0.917358
v 1.198585 1.779044 0.496470
v 1.297339 1.779044 -0.000000
v 1.198585 1.779044 -0.496471
v 0.917357 1.779044 -0.917358
v 0.496470 1.779044 -1.198586
v 0.000000 0.782706 -1.260711
v -0.482453 0.782706 -1.164745
v -0.891458 0.782706 -0.891458
v -1.164746 0.782706 -0.482453
v -1.260711 0.782706 0.000000
v -1.164746 0.782706 0.482454
v -0.891458 0.782706 0.891458
v -0.482453 0.782706 1.164745
v -0.000000 0.782706 1.260711
v 0.482453 0.782706 1.164746
v 0.891457 0.782706 0.891458
v 1.164745 0.782706 0.482454
v 1.260711 0.782706 -0.000000
v 1.164745 0.782706 -0.482454
v 0.891457 0.782706 -0.891458
v 0.482453 0.782706 -1.164746
v 0.000000 0.441932 -1.181579
v -0.452171 0.441932 -1.091637
v -0.835503 0.441932 -0.835503
v -1.091637 0.441932 -0.452171
v -1.181579 0.441932 0.000000
v -1.091637 0.441932 0.452171
v -0.835503 0.441932 0.835503
v -0.452171 0.441932 1.091637
v -0.000000 0.441932 1.181579
v 0.452170 0.441932 1.091637
v 0.835502 0.441932 0.835503
v 1.091637 0.441932 0.452171
v 1.181579 0.441932 -0.000000
v 1.091637 0.441932 -0.452171
v 0.835502 0.441932 -0.835503
v 0.452170 0.441932 -1.091637
v -1.355848 1.857016 -0.230569
v -1.410077 1.857016 0.000000
v -1.355848 1.857016 0.234412
v -1.324231 2.022484 -0.217473
v -1.375855 2.022484 0.000000
v -1.324231 2.022484 0.221316
v -1.291591 1.857016 -0.230569
v -1.345820 1.857016 0.000000
v -1.291591 1.857016 0.234412
v -1.259974 2.022484 -0.217473
v -1.311598 2.022484 0.000000
v -1.259974 2.022484 0.221316
v -1.337650 0.535895 -0.224704
v -1.382347 0.535895 0.000000
v -1.337650 0.535895 0.224704
v -1.368693 0.688743 -0.237562
v -1.415947 0.688743 0.000000
v -1.368693 0.688743 0.237562
v -1.268432 0.535895 -0.224704
v -1.313129 0.535895 0.000000
v -1.268432 0.535895 0.224704
v -1.299475 0.688743 -0.237562
v -1.346729 0.688743 0.000000
v -1.299475 0.688743 0.237562
vt 0.491631 0.203358
vt 0.437186 0.203362
vt 0.435376 0.110096
vt 0.491082 0.110068
vt 0.867523 0.333079
vt 0.814638 0.299119
vt 0.821615 0.207996
vt 0.876419 0.242070
vt 0.382728 0.207949
vt 0.379657 0.114813
vt 0.761510 0.271666
vt 0.767214 0.179875
vt 0.328318 0.217120
vt 0.323989 0.124220
vt 0.708047 0.248941
vt 0.712510 0.156621
vt 0.274017 0.230866
vt 0.219872 0.249154
vt 0.213042 0.157056
vt 0.268432 0.138312
vt 0.654270 0.230739
vt 0.657487 0.138014
vt 0.165836 0.271873
vt 0.157802 0.180207
vt 0.600235 0.217061
vt 0.602200 0.124042
vt 0.111188 0.299074
vt 0.102342 0.205910
vt 0.546001 0.207928
vt 0.546710 0.114721
vt 0.051663 0.339363
vt 0.041509 0.228200
vt 0.922208 0.383804
vt 0.938035 0.280077
vt 0.859517 0.760819
vt 0.799722 0.801649
vt 0.792318 0.659557
vt 0.850893 0.619604
vt 0.378377 0.880818
vt 0.318483 0.862504
vt 0.320996 0.719394
vt 0.379657 0.737293
vt 0.739748 0.835256
vt 0.733583 0.692457
vt 0.258856 0.836858
vt 0.199558 0.803882
vt 0.204507 0.662120
vt 0.262594 0.694322
vt 0.679600 0.861431
vt 0.674675 0.718121
vt 0.140608 0.763280
vt 0.146759 0.622638
vt 0.619334 0.880165
vt 0.615651 0.736505
vt 0.081376 0.713419
vt 0.089293 0.573659
vt 0.559015 0.891460
vt 0.556574 0.747604
vt 0.015712 0.658824
vt 0.029945 0.499988
vt 0.498706 0.895322
vt 0.497508 0.751424
vt 0.984483 0.673868
vt 0.919396 0.715203
vt 0.909958 0.572671
vt 0.973648 0.505346
vt 0.438472 0.891767
vt 0.438515 0.747980
vt 0.848600 0.575035
vt 0.906981 0.526981
vt 0.380462 0.692726
vt 0.438936 0.703281
vt 0.790423 0.615032
vt 0.322183 0.675006
vt 0.732073 0.647808
vt 0.206454 0.618227
vt 0.264161 0.650158
vt 0.673551 0.673369
vt 0.149132 0.579108
vt 0.614914 0.691695
vt 0.092442 0.531125
vt 0.556224 0.702783
vt 0.036094 0.459489
vt 0.497544 0.706641
vt 0.967430 0.459488
vt 0.377716 0.919175
vt 0.317494 0.900711
vt 0.801383 0.839921
vt 0.741081 0.873659
vt 0.257538 0.874876
vt 0.197909 0.841691
vt 0.680600 0.899927
vt 0.138608 0.801047
vt 0.620001 0.918715
vt 0.079117 0.752591
vt 0.559348 0.930023
vt 0.015517 0.703478
vt 0.498707 0.933857
vt 0.984076 0.714920
vt 0.921236 0.752982
vt 0.438142 0.930234
vt 0.861453 0.798940
vt 0.603364 0.090143
vt 0.659107 0.104259
vt 0.100143 0.172536
vt 0.155408 0.146533
vt 0.547417 0.080716
vt 0.042431 0.191836
vt 0.491329 0.075995
vt 0.879780 0.207361
vt 0.938682 0.240067
vt 0.435163 0.075994
vt 0.824626 0.174598
vt 0.378983 0.080720
vt 0.769747 0.146480
vt 0.322854 0.090175
vt 0.714584 0.123043
vt 0.211002 0.123224
vt 0.266839 0.104355
vt 0.598952 0.252687
vt 0.545200 0.243671
vt 0.114681 0.335739
vt 0.059143 0.376380
vt 0.491312 0.239176
vt 0.914153 0.415669
vt 0.863212 0.366863
vt 0.437351 0.239216
vt 0.811360 0.333797
vt 0.383377 0.243798
vt 0.758789 0.306691
vt 0.329451 0.252924
vt 0.705809 0.284212
vt 0.275634 0.266590
vt 0.221973 0.284792
vt 0.652509 0.266208
vt 0.168448 0.307591
vt 0.948427 0.954194
vt 0.873269 0.952130
vt 0.873292 0.902822
vt 0.943524 0.895722
vt 0.796979 0.954163
vt 0.801893 0.895712
vt 0.799260 0.874823
vt 0.873319 0.882537
vt 0.873302 0.972629
vt 0.792820 0.975263
vt 0.775493 0.948168
vt 0.780407 0.889717
vt 0.965018 0.889730
vt 0.969921 0.948201
vt 0.946206 0.874823
vt 0.952646 0.975313
vt 0.564103 0.487499
vt 0.471769 0.480723
vt 0.470135 0.421612
vt 0.568880 0.418924
vt 0.376766 0.486742
vt 0.373515 0.416855
vt 0.470436 0.393510
vt 0.573593 0.389805
vt 0.567635 0.516368
vt 0.471637 0.509189
vt 0.598188 0.427011
vt 0.593412 0.495586
vt 0.369359 0.388232
vt 0.373085 0.516368
vt 0.346755 0.494283
vt 0.343504 0.424396
vt 0.153114 0.469123
vt 0.190498 0.500433
vt 0.169937 0.527439
vt 0.130135 0.494103
vt 0.508371 0.607669
vt 0.557082 0.605404
vt 0.560233 0.639199
vt 0.508371 0.641611
vt 0.230627 0.528138
vt 0.212661 0.556935
vt 0.605372 0.598626
vt 0.611647 0.631983
vt 0.273154 0.551998
vt 0.257939 0.582339
vt 0.652825 0.587395
vt 0.662169 0.620025
vt 0.317713 0.571807
vt 0.305380 0.603429
vt 0.699030 0.571807
vt 0.743589 0.551998
vt 0.758803 0.582339
vt 0.711362 0.603430
vt 0.363918 0.587395
vt 0.354574 0.620025
vt 0.786116 0.528138
vt 0.804081 0.556935
vt 0.411370 0.598626
vt 0.405096 0.631983
vt 0.826245 0.500433
vt 0.846806 0.527439
vt 0.459660 0.605404
vt 0.456510 0.639199
vt 0.863629 0.469123
vt 0.886608 0.494103
vt 0.516789 0.321473
vt 0.464659 0.319171
vt 0.464659 0.279574
vt 0.520280 0.282031
vt 0.165914 0.400198
vt 0.122092 0.428526
vt 0.099149 0.396253
vt 0.145907 0.366028
vt 0.568513 0.328363
vt 0.575468 0.289383
vt 0.212063 0.375845
vt 0.195147 0.340044
vt 0.619428 0.339787
vt 0.629793 0.301572
vt 0.260180 0.355655
vt 0.246486 0.318502
vt 0.717254 0.375845
vt 0.669137 0.355656
vt 0.682832 0.318503
vt 0.734171 0.340045
vt 0.309890 0.339787
vt 0.299525 0.301571
vt 0.763403 0.400199
vt 0.783411 0.366029
vt 0.360805 0.328363
vt 0.353850 0.289383
vt 0.807225 0.428526
vt 0.830168 0.396254
vt 0.412529 0.321473
vt 0.409038 0.282031
vt 0.848379 0.460607
vt 0.874078 0.430483
vt 0.080938 0.460607
vt 0.055239 0.430483
vn 0.669700 -0.742600 0.000000
vn 0.618800 -0.742600 -0.256300
vn 0.750500 0.583100 -0.310900
vn 0.812300 0.583100 0.000000
vn -0.618800 -0.742600 0.256300
vn -0.473600 -0.742600 0.473600
vn -0.574400 0.583100 0.574400
vn -0.750500 0.583100 0.310900
vn 0.473600 -0.742600 -0.473600
vn 0.574400 0.583100 -0.574400
vn -0.256300 -0.742600 0.618800
vn -0.310900 0.583100 0.750500
vn 0.256300 -0.742600 -0.618800
vn 0.310900 0.583100 -0.750500
vn 0.000000 -0.742600 0.669700
vn 0.000000 0.583100 0.812300
vn 0.000000 -0.742600 -0.669700
vn -0.256300 -0.742600 -0.618800
vn -0.310900 0.583100 -0.750500
vn 0.000000 0.583100 -0.812300
vn 0.256300 -0.742600 0.618800
vn 0.310900 0.583100 0.750500
vn -0.473600 -0.742600 -0.473600
vn -0.574400 0.583100 -0.574400
vn 0.473600 -0.742600 0.473600
vn 0.574400 0.583100 0.574400
vn -0.618800 -0.742600 -0.256300
vn -0.750500 0.583100 -0.310900
vn 0.618800 -0.742600 0.256300
vn 0.750500 0.583100 0.310900
vn -0.669700 -0.742600 0.000000
vn -0.812300 0.583100 0.000000
vn -0.571900 -0.588000 0.571900
vn -0.309500 -0.588000 0.747300
vn -0.258100 0.738300 0.623100
vn -0.476900 0.738300 0.476900
vn 0.571900 -0.588000 -0.571900
vn 0.309500 -0.588000 -0.747300
vn 0.258100 0.738300 -0.623100
vn 0.476900 0.738300 -0.476900
vn 0.000000 -0.588000 0.808800
vn 0.000000 0.738300 0.674400
vn 0.000000 -0.588000 -0.808800
vn -0.309500 -0.588000 -0.747200
vn -0.258100 0.738300 -0.623100
vn 0.000000 0.738300 -0.674400
vn 0.309500 -0.588000 0.747300
vn 0.258100 0.738300 0.623100
vn -0.571900 -0.588000 -0.571900
vn -0.476900 0.738300 -0.476900
vn 0.571900 -0.588000 0.571900
vn 0.476900 0.738300 0.476900
vn -0.747300 -0.588000 -0.309500
vn -0.623100 0.738300 -0.258100
vn 0.747300 -0.588000 0.309500
vn 0.623100 0.738300 0.258100
vn -0.808800 -0.588000 0.000000
vn -0.674400 0.738300 0.000000
vn 0.808800 -0.588000 0.000000
vn 0.674400 0.738300 0.000000
vn -0.747300 -0.588000 0.309500
vn -0.623100 0.738300 0.258100
vn 0.747300 -0.588000 -0.309500
vn 0.623100 0.738300 -0.258100
vn 0.525400 0.669200 -0.525400
vn 0.686500 0.669200 -0.284300
vn -0.525400 0.669200 0.525400
vn -0.686500 0.669200 0.284300
vn 0.284300 0.669200 -0.686500
vn -0.284300 0.669200 0.686500
vn 0.000000 0.669200 -0.743100
vn 0.284300 0.669200 0.686500
vn 0.000000 0.669200 0.743100
vn -0.284300 0.669200 -0.686500
vn 0.525400 0.669200 0.525400
vn -0.525400 0.669200 -0.525400
vn 0.686500 0.669200 0.284300
vn -0.686500 0.669200 -0.284300
vn 0.743100 0.669200 0.000000
vn -0.743100 0.669200 0.000000
vn -0.399400 -0.825200 0.399400
vn -0.216100 -0.825200 0.521800
vn 0.216100 -0.825200 -0.521800
vn 0.000000 -0.825200 -0.564800
vn 0.000000 -0.825200 0.564800
vn 0.216100 -0.825200 0.521800
vn -0.216100 -0.825200 -0.521800
vn 0.399400 -0.825200 0.399400
vn -0.399400 -0.825200 -0.399400
vn 0.521800 -0.825200 0.216100
vn -0.521800 -0.825200 -0.216100
vn 0.564800 -0.825200 0.000000
vn -0.564800 -0.825200 0.000000
vn 0.521800 -0.825200 -0.216100
vn -0.521800 -0.825200 0.216100
vn 0.399400 -0.825200 -0.399400
vn -0.402800 0.821800 -0.402800
vn -0.218000 0.821800 -0.526300
vn 0.526300 0.821800 0.218000
vn 0.402800 0.821800 0.402800
vn -0.526300 0.821800 -0.218000
vn 0.569700 0.821800 0.000000
vn -0.569700 0.821800 0.000000
vn 0.526300 0.821800 -0.218000
vn -0.526300 0.821800 0.218000
vn 0.402800 0.821800 -0.402800
vn -0.402800 0.821800 0.402800
vn 0.218000 0.821800 -0.526300
vn -0.218000 0.821800 0.526300
vn 0.000000 0.821800 -0.569700
vn 0.218000 0.821800 0.526300
vn 0.000000 0.821800 0.569700
vn -0.522400 -0.673800 -0.522400
vn -0.682600 -0.673800 -0.282700
vn 0.682600 -0.673800 0.282700
vn 0.738900 -0.673800 0.000000
vn -0.738800 -0.673800 0.000000
vn 0.682600 -0.673800 -0.282700
vn -0.682600 -0.673800 0.282700
vn 0.522400 -0.673800 -0.522400
vn -0.522400 -0.673800 0.522400
vn 0.282700 -0.673800 -0.682600
vn -0.282700 -0.673800 0.682600
vn 0.000000 -0.673800 -0.738900
vn 0.000000 -0.673800 0.738900
vn 0.282700 -0.673800 0.682600
vn -0.282700 -0.673800 -0.682600
vn 0.522400 -0.673800 0.522400
vn -0.552500 -0.522300 -0.649500
vn -0.813900 -0.581000 -0.001500
vn -0.680600 0.732600 -0.001300
vn -0.442800 0.654800 -0.612400
vn -0.553800 -0.522000 0.648700
vn -0.444000 0.654700 0.611700
vn 0.000000 0.725000 0.688700
vn 0.000000 1.000000 0.000000
vn 0.000000 -1.000000 0.000000
vn 0.000000 -0.566200 0.824200
vn 0.000000 0.724100 -0.689700
vn 0.000000 -0.565100 -0.825000
vn -0.450700 -0.657400 -0.603900
vn -0.567700 0.515100 -0.642100
vn -0.450700 -0.657400 0.603900
vn -0.567700 0.515100 0.642100
vn 0.000000 0.570700 -0.821200
vn 0.000000 -0.736900 -0.676000
vn 0.000000 0.570700 0.821200
vn 0.000000 -0.736900 0.676000
usemtl metal_barrio
s 1
f 13/1/1 14/2/2 30/3/3 29/4/4
f 6/5/5 7/6/6 23/7/7 22/8/8
f 14/2/2 15/9/9 31/10/10 30/3/3
f 7/6/6 8/11/11 24/12/12 23/7/7
f 15/9/9 16/13/13 32/14/14 31/10/10
f 8/11/11 9/15/15 25/16/16 24/12/12
f 1/17/17 2/18/18 18/19/19 17/20/20
f 16/13/13 1/17/17 17/20/20 32/14/14
f 9/15/15 10/21/21 26/22/22 25/16/16
f 2/18/18 3/23/23 19/24/24 18/19/19
f 10/21/21 11/25/25 27/26/26 26/22/22
f 3/23/23 4/27/27 20/28/28 19/24/24
f 11/25/25 12/29/29 28/30/30 27/26/26
f 4/27/27 5/31/31 21/32/32 20/28/28
f 12/29/29 13/1/1 29/4/4 28/30/30
f 5/33/31 6/5/5 22/8/8 21/34/32
f 39/35/33 40/36/34 56/37/35 55/38/36
f 47/39/37 48/40/38 64/41/39 63/42/40
f 40/36/34 41/43/41 57/44/42 56/37/35
f 33/45/43 34/46/44 50/47/45 49/48/46
f 48/40/38 33/45/43 49/48/46 64/41/39
f 41/43/41 42/49/47 58/50/48 57/44/42
f 34/46/44 35/51/49 51/52/50 50/47/45
f 42/49/47 43/53/51 59/54/52 58/50/48
f 35/51/49 36/55/53 52/56/54 51/52/50
f 43/53/51 44/57/55 60/58/56 59/54/52
f 36/55/53 37/59/57 53/60/58 52/56/54
f 44/57/55 45/61/59 61/62/60 60/58/56
f 37/63/57 38/64/61 54/65/62 53/66/58
f 45/61/59 46/67/63 62/68/64 61/62/60
f 38/64/61 39/35/33 55/38/36 54/65/62
f 46/67/63 47/39/37 63/42/40 62/68/64
f 54/65/62 55/38/36 71/69/65 70/70/66
f 62/68/64 63/42/40 79/71/67 78/72/68
f 55/38/36 56/37/35 72/73/69 71/69/65
f 63/42/40 64/41/39 80/74/70 79/71/67
f 56/37/35 57/44/42 73/75/71 72/73/69
f 49/48/46 50/47/45 66/76/72 65/77/73
f 64/41/39 49/48/46 65/77/73 80/74/70
f 57/44/42 58/50/48 74/78/74 73/75/71
f 50/47/45 51/52/50 67/79/75 66/76/72
f 58/50/48 59/54/52 75/80/76 74/78/74
f 51/52/50 52/56/54 68/81/77 67/79/75
f 59/54/52 60/58/56 76/82/78 75/80/76
f 52/56/54 53/60/58 69/83/79 68/81/77
f 60/58/56 61/62/60 77/84/80 76/82/78
f 53/66/58 54/65/62 70/70/66 69/85/79
f 61/62/60 62/68/64 78/72/68 77/84/80
f 48/40/38 47/39/37 95/86/81 96/87/82
f 41/43/41 40/36/34 88/88/83 89/89/84
f 34/46/44 33/45/43 81/90/85 82/91/86
f 33/45/43 48/40/38 96/87/82 81/90/85
f 42/49/47 41/43/41 89/89/84 90/92/87
f 35/51/49 34/46/44 82/91/86 83/93/88
f 43/53/51 42/49/47 90/92/87 91/94/89
f 36/55/53 35/51/49 83/93/88 84/95/90
f 44/57/55 43/53/51 91/94/89 92/96/91
f 37/59/57 36/55/53 84/95/90 85/97/92
f 45/61/59 44/57/55 92/96/91 93/98/93
f 38/64/61 37/63/57 85/99/92 86/100/94
f 46/67/63 45/61/59 93/98/93 94/101/95
f 39/35/33 38/64/61 86/100/94 87/102/96
f 47/39/37 46/67/63 94/101/95 95/86/81
f 40/36/34 39/35/33 87/102/96 88/88/83
f 26/22/22 27/26/26 107/103/97 106/104/98
f 19/24/24 20/28/28 100/105/99 99/106/100
f 27/26/26 28/30/30 108/107/101 107/103/97
f 20/28/28 21/32/32 101/108/102 100/105/99
f 28/30/30 29/4/4 109/109/103 108/107/101
f 21/34/32 22/8/8 102/110/104 101/111/102
f 29/4/4 30/3/3 110/112/105 109/109/103
f 22/8/8 23/7/7 103/113/106 102/110/104
f 30/3/3 31/10/10 111/114/107 110/112/105
f 23/7/7 24/12/12 104/115/108 103/113/106
f 31/10/10 32/14/14 112/116/109 111/114/107
f 24/12/12 25/16/16 105/117/110 104/115/108
f 17/20/20 18/19/19 98/118/111 97/119/112
f 32/14/14 17/20/20 97/119/112 112/116/109
f 25/16/16 26/22/22 106/104/98 105/117/110
f 18/19/19 19/24/24 99/106/100 98/118/111
f 12/29/29 11/25/25 123/120/113 124/121/114
f 5/31/31 4/27/27 116/122/115 117/123/116
f 13/1/1 12/29/29 124/121/114 125/124/117
f 6/5/5 5/33/31 117/125/116 118/126/118
f 14/2/2 13/1/1 125/124/117 126/127/119
f 7/6/6 6/5/5 118/126/118 119/128/120
f 15/9/9 14/2/2 126/127/119 127/129/121
f 8/11/11 7/6/6 119/128/120 120/130/122
f 16/13/13 15/9/9 127/129/121 128/131/123
f 9/15/15 8/11/11 120/130/122 121/132/124
f 2/18/18 1/17/17 113/133/125 114/134/126
f 1/17/17 16/13/13 128/131/123 113/133/125
f 10/21/21 9/15/15 121/132/124 122/135/127
f 3/23/23 2/18/18 114/134/126 115/136/128
f 11/25/25 10/21/21 122/135/127 123/120/113
f 4/27/27 3/23/23 115/136/128 116/122/115
f 129/137/129 130/138/130 133/139/131 132/140/132
f 130/138/130 131/141/133 134/142/134 133/139/131
f 133/139/131 134/142/134 140/143/135 139/144/136
f 131/141/133 130/138/130 136/145/137 137/146/138
f 134/142/134 131/141/133 137/147/138 140/148/135
f 129/137/129 132/140/132 138/149/139 135/150/140
f 132/140/132 133/139/131 139/144/136 138/151/139
f 130/138/130 129/137/129 135/152/140 136/145/137
f 141/153/141 142/154/31 145/155/32 144/156/142
f 142/154/31 143/157/143 146/158/144 145/155/32
f 144/156/142 145/155/32 151/159/136 150/160/145
f 142/154/31 141/153/141 147/161/146 148/162/137
f 141/153/141 144/156/142 150/163/145 147/164/146
f 145/155/32 146/158/144 152/165/147 151/159/136
f 143/157/143 142/154/31 148/162/137 149/166/148
f 146/158/144 143/157/143 149/167/148 152/168/147
f 69/169/79 70/170/66 86/171/94 85/172/92
f 77/173/80 78/174/68 94/175/95 93/176/93
f 70/170/66 71/177/65 87/178/96 86/171/94
f 78/174/68 79/179/67 95/180/81 94/175/95
f 71/177/65 72/181/69 88/182/83 87/178/96
f 79/179/67 80/183/70 96/184/82 95/180/81
f 72/181/69 73/185/71 89/186/84 88/182/83
f 65/187/73 66/188/72 82/189/86 81/190/85
f 80/183/70 65/187/73 81/190/85 96/184/82
f 73/185/71 74/191/74 90/192/87 89/186/84
f 66/188/72 67/193/75 83/194/88 82/189/86
f 74/191/74 75/195/76 91/196/89 90/192/87
f 67/193/75 68/197/77 84/198/90 83/194/88
f 75/195/76 76/199/78 92/200/91 91/196/89
f 68/197/77 69/201/79 85/202/92 84/198/90
f 76/199/78 77/173/80 93/176/93 92/200/91
f 126/203/119 125/204/117 109/205/103 110/206/105
f 119/207/120 118/208/118 102/209/104 103/210/106
f 127/211/121 126/203/119 110/206/105 111/212/107
f 120/213/122 119/207/120 103/210/106 104/214/108
f 128/215/123 127/211/121 111/212/107 112/216/109
f 121/217/124 120/213/122 104/214/108 105/218/110
f 114/219/126 113/220/125 97/221/112 98/222/111
f 113/220/125 128/215/123 112/216/109 97/221/112
f 122/223/127 121/217/124 105/218/110 106/224/98
f 115/225/128 114/219/126 98/222/111 99/226/100
f 123/227/113 122/223/127 106/224/98 107/228/97
f 116/229/115 115/225/128 99/226/100 100/230/99
f 124/231/114 123/227/113 107/228/97 108/232/101
f 117/233/116 116/229/115 100/230/99 101/234/102
f 125/204/117 124/231/114 108/232/101 109/205/103
f 118/208/118 117/235/116 101/236/102 102/209/104
