# Blender v2.77 (sub 0) OBJ File: ''
# www.blender.org
mtllib baseViga.mtl
o Cube
v 0.992804 0.078201 -0.942289
v 0.950000 0.028722 -0.950000
v 0.942289 0.078201 -0.992804
v 0.992804 0.078201 0.942289
v 0.942289 0.078201 0.992804
v 0.950000 0.028722 0.950000
v -0.942289 0.078201 0.992804
v -0.992804 0.078201 0.942289
v -0.950000 0.028722 0.950000
v -0.942289 0.078201 -0.992804
v -0.950000 0.028722 -0.950000
v -0.992804 0.078201 -0.942289
v 0.665817 1.979242 -0.716331
v 0.659136 2.028722 -0.659135
v 0.716332 1.979242 -0.665816
v 0.665816 1.979242 0.716332
v 0.716331 1.979242 0.665817
v 0.659135 2.028722 0.659136
v -0.716332 1.979242 0.665816
v -0.665817 1.979242 0.716331
v -0.659136 2.028722 0.659135
v -0.716332 1.979242 -0.665816
v -0.659136 2.028722 -0.659136
v -0.665816 1.979242 -0.716332
vt 0.691906 0.296206
vt 0.798869 0.087189
vt 0.991395 0.213476
vt 0.828866 0.396739
vt 0.512265 0.012462
vt 0.511016 0.259370
vt 0.337326 0.288898
vt 0.276597 0.065853
vt 0.268034 0.068280
vt 0.328683 0.291845
vt 0.167963 0.396147
vt 0.003492 0.133820
vt 0.422009 0.578423
vt 0.249275 0.578423
vt 0.249275 0.405689
vt 0.422009 0.405689
vt 0.791485 0.081244
vt 0.684254 0.292767
vt 0.520191 0.259420
vt 0.522298 0.009743
vt 0.801017 0.078856
vt 0.513553 0.002734
vt 0.270027 0.058259
vt 0.998541 0.207799
vt 0.999894 0.217955
vt 0.684134 0.303183
vt 0.515455 0.269460
vt 0.336580 0.300147
vt 0.835050 0.404471
vt 0.823676 0.405478
vt 0.523679 0.000106
vt 0.795068 0.072191
vt 0.000106 0.124796
vt 0.175247 0.405478
vt 0.249064 0.654647
vt 0.000106 0.654647
vt 0.000106 0.405689
vt 0.249064 0.405689
vn 0.316800 0.462700 -0.828000
vn 0.354900 -0.212700 -0.910400
vn -0.354900 -0.212700 -0.910400
vn -0.316800 0.462700 -0.828000
vn 0.354900 -0.212700 0.910400
vn 0.316800 0.462700 0.828000
vn -0.316800 0.462700 0.828000
vn -0.354900 -0.212700 0.910400
vn -0.910400 -0.212700 0.354900
vn -0.828000 0.462700 0.316800
vn -0.828000 0.462700 -0.316800
vn -0.910400 -0.212700 -0.354900
vn 0.304100 0.902800 -0.304100
vn -0.304100 0.902800 -0.304100
vn -0.304100 0.902800 0.304100
vn 0.304100 0.902800 0.304100
vn 0.910400 -0.212700 -0.354900
vn 0.828000 0.462700 -0.316800
vn 0.828000 0.462700 0.316800
vn 0.910400 -0.212700 0.354900
vn 0.384100 -0.839600 -0.384100
vn 0.384100 -0.839600 0.384100
vn -0.384100 -0.839600 0.384100
vn -0.384100 -0.839600 -0.384100
usemtl Material
s 1
f 13/1/1 3/2/2 10/3/3 24/4/4
f 5/5/5 16/6/6 20/7/7 7/8/8
f 8/9/9 19/10/10 22/11/11 12/12/12
f 14/13/13 23/14/14 21/15/15 18/16/16
f 1/17/17 15/18/18 17/19/19 4/20/20
f 1/17/17 2/21/21 3/2/2
f 4/20/20 5/5/5 6/22/22
f 7/8/8 8/9/9 9/23/23
f 10/3/3 11/24/24 12/25/12
f 13/1/1 14/26/13 15/18/18
f 16/6/6 17/19/19 18/27/16
f 19/10/10 20/7/7 21/28/15
f 22/29/11 23/30/14 24/4/4
f 1/17/17 4/20/20 6/31/22 2/32/21
f 2/21/21 11/24/24 10/3/3 3/2/2
f 3/2/2 13/1/1 15/18/18 1/17/17
f 5/5/5 7/8/8 9/23/23 6/22/22
f 4/20/20 17/19/19 16/6/6 5/5/5
f 8/9/9 12/12/12 11/33/24 9/23/23
f 7/8/8 20/7/7 19/10/10 8/9/9
f 12/25/12 22/29/11 24/4/4 10/3/3
f 14/26/13 18/27/16 17/19/19 15/18/18
f 13/1/1 24/4/4 23/30/14 14/26/13
f 18/27/16 21/28/15 20/7/7 16/6/6
f 21/28/15 23/34/14 22/11/11 19/10/10
f 2/35/21 6/36/22 9/37/23 11/38/24
