# Blender v2.77 (sub 0) OBJ File: ''
# www.blender.org
mtllib tabua01.mtl
o Cube
v 2.344764 -0.074316 -0.292989
v 2.344764 -0.074316 0.292989
v -2.344764 -0.074316 0.292989
v -2.344763 -0.074316 -0.292989
v 2.344764 0.074316 -0.292988
v 2.344762 0.074316 0.292989
v -2.344764 0.074316 0.292988
v -2.344763 0.074316 -0.292989
vt 0.765765 0.038152
vt 0.888985 0.038152
vt 0.888985 0.914705
vt 0.765765 0.914704
vt 0.734510 0.038152
vt 0.734511 0.914704
vt 0.611291 0.914705
vt 0.611290 0.038152
vt 0.765765 -0.003521
vt 0.888985 -0.003521
vt 0.920240 0.038152
vt 0.920239 0.914705
vt 0.888985 0.956377
vt 0.765765 0.956377
vn 0.000000 -1.000000 -0.000000
vn 0.000000 1.000000 0.000000
vn 1.000000 0.000000 0.000000
vn -0.000000 -0.000000 1.000000
vn -1.000000 -0.000000 -0.000000
vn 0.000000 0.000000 -1.000000
usemtl Material
s off
f 1/1/1 2/2/1 3/3/1 4/4/1
f 5/5/2 8/6/2 7/7/2 6/8/2
f 1/1/3 5/9/3 6/10/3 2/2/3
f 2/2/4 6/11/4 7/12/4 3/3/4
f 3/3/5 7/13/5 8/14/5 4/4/5
f 5/5/6 1/1/6 4/4/6 8/6/6
