# Blender v2.77 (sub 0) OBJ File: ''
# www.blender.org
mtllib viga01.mtl
o Cube
v 2.344764 -0.074316 -0.292989
v 2.344764 -0.074316 0.292989
v -2.344764 -0.074316 0.292989
v -2.344763 -0.074316 -0.292989
v 2.344764 0.394507 -0.292988
v 2.344762 0.394507 0.292989
v -2.344764 0.394507 0.292988
v -2.344763 0.394507 -0.292989
vt 0.760843 0.116628
vt 0.862254 0.116628
vt 0.862253 0.838034
vt 0.760843 0.838033
vt 0.679708 0.116628
vt 0.679707 0.838033
vt 0.578297 0.838034
vt 0.578297 0.116628
vt 0.760843 0.008448
vt 0.862254 0.008448
vt 0.943389 0.116629
vt 0.943389 0.838034
vt 0.862253 0.946214
vt 0.760843 0.946214
vn 0.000000 -1.000000 -0.000000
vn 0.000000 1.000000 0.000000
vn 1.000000 0.000000 0.000000
vn -0.000000 -0.000000 1.000000
vn -1.000000 -0.000000 -0.000000
vn 0.000000 0.000000 -1.000000
usemtl Material
s off
f 1/1/1 2/2/1 3/3/1 4/4/1
f 5/5/2 8/6/2 7/7/2 6/8/2
f 1/1/3 5/9/3 6/10/3 2/2/3
f 2/2/4 6/11/4 7/12/4 3/3/4
f 3/3/5 7/13/5 8/14/5 4/4/5
f 5/5/6 1/1/6 4/4/6 8/6/6
