# Blender v2.77 (sub 0) OBJ File: ''
# www.blender.org
mtllib corda.mtl
o Cylinder
v 0.000000 1.747049 -0.047293
v 0.000000 -1.747049 -0.047293
v 0.023647 1.747049 -0.040957
v 0.023647 -1.747049 -0.040957
v 0.040957 1.747049 -0.023647
v 0.040957 -1.747049 -0.023647
v 0.047293 1.747049 0.000000
v 0.047293 -1.747049 0.000000
v 0.040957 1.747049 0.023647
v 0.040957 -1.747049 0.023647
v 0.023647 1.747049 0.040957
v 0.023647 -1.747049 0.040957
v 0.000000 1.747049 0.047293
v 0.000000 -1.747049 0.047293
v -0.023647 1.747049 0.040957
v -0.023647 -1.747049 0.040957
v -0.040957 1.747049 0.023647
v -0.040957 -1.747049 0.023647
v -0.047293 1.747049 0.000000
v -0.047293 -1.747049 0.000000
v -0.040957 1.747049 -0.023647
v -0.040957 -1.747049 -0.023647
v -0.023647 1.747049 -0.040957
v -0.023647 -1.747049 -0.040957
vt 0.666466 0.949455
vt 0.666466 0.011170
vt 0.747746 0.011170
vt 0.747746 0.949455
vt 0.829026 0.011170
vt 0.829026 0.949455
vt 0.910306 0.011170
vt 0.910305 0.949455
vt 0.991586 0.011170
vt 0.991585 0.949455
vt 0.016227 0.949455
vt 0.016227 0.011170
vt 0.097507 0.011170
vt 0.097507 0.949455
vt 0.178787 0.011170
vt 0.178787 0.949455
vt 0.260067 0.011170
vt 0.260067 0.949455
vt 0.341347 0.011170
vt 0.341347 0.949455
vt 0.422626 0.011170
vt 0.422626 0.949455
vt 0.503906 0.011170
vt 0.503906 0.949455
vt 0.585186 0.011170
vt 0.585186 0.949455
vn 0.000000 0.000000 1.000000
vn -0.500000 0.000000 0.866000
vn -0.866000 0.000000 0.500000
vn -1.000000 0.000000 0.000000
vn -0.866000 0.000000 -0.500000
vn -0.500000 0.000000 -0.866000
vn 0.000000 0.000000 -1.000000
vn 0.500000 0.000000 -0.866000
vn 0.866000 0.000000 -0.500000
vn 1.000000 0.000000 0.000000
vn 0.866000 0.000000 0.500000
vn 0.500000 0.000000 0.866000
usemtl None
s 1
f 1/1/1 2/2/1 4/3/2 3/4/2
f 3/4/2 4/3/2 6/5/3 5/6/3
f 5/6/3 6/5/3 8/7/4 7/8/4
f 7/8/4 8/7/4 10/9/5 9/10/5
f 9/11/5 10/12/5 12/13/6 11/14/6
f 11/14/6 12/13/6 14/15/7 13/16/7
f 13/16/7 14/15/7 16/17/8 15/18/8
f 15/18/8 16/17/8 18/19/9 17/20/9
f 17/20/9 18/19/9 20/21/10 19/22/10
f 19/22/10 20/21/10 22/23/11 21/24/11
f 21/24/11 22/23/11 24/25/12 23/26/12
f 23/26/12 24/25/12 2/2/1 1/1/1
